# xmcd CD database file
#
# Track frame offsets:
#	150
#	31567
#	55113
#	74688
#	96213
#	116861
#	163171
#	197737
#	233278
#	269488
#	307592
#	321336
#
# Disc length: 4768 seconds
#
# Revision: 0
# Processed by: cddbd v1.5.2PL0 Copyright (c) Steve Scherf et al.
# Submitted via: CDex 1.51
#
DISCID=9e129e0c
DTITLE=Doldinger, Klaus and Passport - Lifelike
DYEAR=1980
DGENRE=Jazz
TTITLE0=Shirokko
TTITLE1=Guna Guna
TTITLE2=Bahia Do Sol
TTITLE3=Morning Sun
TTITLE4=Fairy Tale
TTITLE5=Ostinato
TTITLE6=Jadoo
TTITLE7=Sambukada
TTITLE8=Stormy Monday Blues
TTITLE9=Ataraxia
TTITLE10=Dreamware
TTITLE11=Alegrina
EXTD=YEAR: 1980
EXTT0=
EXTT1=
EXTT2=
EXTT3=
EXTT4=
EXTT5=
EXTT6=
EXTT7=
EXTT8=
EXTT9=
EXTT10=
EXTT11=
PLAYORDER=
